# xmcd
#
# Track frame offsets: 
#        150
#        18405
#        29682
#        50147
#        68145
#        79342
#        97545
#        113154
#        128367
#        149716
#        174095
#        198554
#
# Disc length: 2814 seconds
#
# Revision: 0
# Processed by: cddbd v1.4PL0 Copyright (c) Steve Scherf et al.
# Submitted via: ExactAudioCopy v0.90b4
#
DISCID=a00afc0c
DTITLE=Lil' Dave Thompson - C'mon Down To The Delta
DYEAR=2001
DGENRE=Blues
TTITLE0=Standin' In The Rain
TTITLE1=Call Me Baby
TTITLE2=Caught Up In A Crossfire
TTITLE3=We Can Make It If We Try
TTITLE4=Suitcase Packed
TTITLE5=Pull Up To Your Bumper
TTITLE6=Strung Out
TTITLE7=C'mon Down To The Delta
TTITLE8=I Got A Feelin'
TTITLE9=Cuttin' Loose
TTITLE10=You At My Door
TTITLE11=My Baby Won't Change
EXTD=
EXTT0=
EXTT1=
EXTT2=
EXTT3=
EXTT4=
EXTT5=
EXTT6=
EXTT7=
EXTT8=
EXTT9=
EXTT10=
EXTT11=
PLAYORDER=
